HIERARCHY
ROOT Hips
{
	OFFSET -0.001795 -0.223333 0.028219
	CHANNELS 6 Xposition Yposition Zposition Zrotation Yrotation Xrotation 
	JOINT LeftUpLeg
	{
		OFFSET 0.069520 -0.091406 -0.006815
		CHANNELS 3 Zrotation Yrotation Xrotation
		JOINT LeftLeg
		{
			OFFSET 0.034277 -0.375199 -0.004496
			CHANNELS 3 Zrotation Yrotation Xrotation
			JOINT LeftFoot
			{
				OFFSET -0.013596 -0.397961 -0.043693
				CHANNELS 3 Zrotation Yrotation Xrotation
				JOINT LeftToe
				{
					OFFSET 0.026358 -0.055791 0.119288
					CHANNELS 3 Zrotation Yrotation Xrotation
					End Site
					{
						OFFSET 0.000000 0.000000 0.000000
					}
				}
			}
		}
	}
	JOINT RightUpLeg
	{
		OFFSET -0.067670 -0.090522 -0.004320
		CHANNELS 3 Zrotation Yrotation Xrotation
		JOINT RightLeg
		{
			OFFSET -0.038290 -0.382569 -0.008850
			CHANNELS 3 Zrotation Yrotation Xrotation
			JOINT RightFoot
			{
				OFFSET 0.015774 -0.398415 -0.042312
				CHANNELS 3 Zrotation Yrotation Xrotation
				JOINT RightToe
				{
					OFFSET -0.025372 -0.048144 0.123348
					CHANNELS 3 Zrotation Yrotation Xrotation
					End Site
					{
						OFFSET 0.000000 0.000000 0.000000
					}
				}
			}
		}
	}
	JOINT Spine
	{
		OFFSET -0.002533 0.108963 -0.026696
		CHANNELS 3 Zrotation Yrotation Xrotation
		JOINT Spine1
		{
			OFFSET 0.005487 0.135180 0.001092
			CHANNELS 3 Zrotation Yrotation Xrotation
			JOINT Spine2
			{
				OFFSET 0.001457 0.052922 0.025425
				CHANNELS 3 Zrotation Yrotation Xrotation
				JOINT Neck
				{
					OFFSET -0.002778 0.213870 -0.042857
					CHANNELS 3 Zrotation Yrotation Xrotation
					JOINT Head
					{
						OFFSET 0.005152 0.064970 0.051349
						CHANNELS 3 Zrotation Yrotation Xrotation
						End Site
						{
							OFFSET 0.000000 0.000000 0.000000
						}
					}
				}
				JOINT LeftShoulder
				{
					OFFSET 0.078845 0.121749 -0.034090
					CHANNELS 3 Zrotation Yrotation Xrotation
					JOINT LeftArm
					{
						OFFSET 0.090977 0.030469 -0.008868
						CHANNELS 3 Zrotation Yrotation Xrotation
						JOINT LeftForeArm
						{
							OFFSET 0.259612 -0.012772 -0.027456
							CHANNELS 3 Zrotation Yrotation Xrotation
							JOINT LeftHand
							{
								OFFSET 0.249234 0.008986 -0.001171
								CHANNELS 3 Zrotation Yrotation Xrotation
								End Site
								{
									OFFSET 0.000000 0.000000 0.000000
								}
							}
						}
					}
				}
				JOINT RightShoulder
				{
					OFFSET -0.081759 0.118833 -0.038615
					CHANNELS 3 Zrotation Yrotation Xrotation
					JOINT RightArm
					{
						OFFSET -0.096012 0.032551 -0.009143
						CHANNELS 3 Zrotation Yrotation Xrotation
						JOINT RightForeArm
						{
							OFFSET -0.253742 -0.013329 -0.021401
							CHANNELS 3 Zrotation Yrotation Xrotation
							JOINT RightHand
							{
								OFFSET -0.255298 0.007772 -0.005559
								CHANNELS 3 Zrotation Yrotation Xrotation
								End Site
								{
									OFFSET 0.000000 0.000000 0.000000
								}
							}
						}
					}
				}
			}
		}
	}
}
MOTION
Frames: 16
Frame Time: 0.050000
0.000000 0.938755 0.000000 -0.701736 -2.962417 0.642701 6.521124 -0.518892 -15.209193 -9.133841 3.359430 36.494212 7.249029 15.176952 1.563801 0.000000 0.000000 0.000000 1.020797 0.017481 -0.452000 2.186154 -0.066029 6.466194 -1.462435 -1.815050 -3.647824 0.000000 0.000000 0.000000 6.473411 -1.118963 11.126742 -5.039892 1.890038 -18.386443 0.332825 6.292962 22.392320 7.946216 -2.596968 -23.050579 0.000000 0.000000 0.000000 -22.034612 -8.812028 2.240922 -47.234003 -7.688602 -4.065251 -7.352539 -29.460428 3.058195 0.000000 0.000000 0.000000 24.046662 -0.035975 -0.210145 50.161004 10.573032 -2.783047 7.902416 27.753124 3.265653 0.000000 0.000000 0.000000 
-0.000459 0.939196 0.017915 -0.557713 -2.291882 0.885165 7.196189 -0.533907 -18.661460 -9.730961 3.372769 34.715405 8.009548 16.706923 2.755330 0.000000 0.000000 0.000000 1.037430 -0.133819 0.958227 2.126268 -0.090238 5.396271 -1.212921 -1.521570 -3.017468 0.000000 0.000000 0.000000 6.337225 -1.158593 11.554600 -4.550944 1.737424 -19.540932 0.247231 6.941524 22.966196 7.978553 -2.287601 -24.193862 0.000000 0.000000 0.000000 -21.853633 -8.297029 1.636631 -46.896090 -6.972785 -4.261364 -7.261554 -29.151204 2.935714 0.000000 0.000000 0.000000 22.894603 -0.255727 0.036471 51.199814 10.660597 -2.851384 8.704863 28.928372 3.728491 0.000000 0.000000 0.000000 
0.000492 0.938598 0.037515 -0.342430 -2.373753 -0.006008 7.002403 -0.586760 -20.409017 -9.518834 2.889488 29.392400 8.778536 18.107167 2.694461 0.000000 0.000000 0.000000 0.514004 -0.415496 3.937205 2.017882 -0.112745 3.865732 -0.473289 -0.165623 -1.873393 0.000000 0.000000 0.000000 6.818552 -1.304118 12.769860 -5.026865 1.856878 -20.737679 0.185033 7.606786 23.573609 7.672519 -2.239256 -22.792426 0.000000 0.000000 0.000000 -20.960335 -8.992227 1.923184 -46.275157 -7.056073 -4.231261 -7.587181 -26.770044 2.723141 0.000000 0.000000 0.000000 23.504353 -0.217547 0.277066 50.241184 11.622991 -2.616173 8.426740 28.480469 3.613290 0.000000 0.000000 0.000000 
0.002782 0.935599 0.059281 -0.437197 -3.152965 -0.429340 7.113596 -0.530914 -20.822394 -8.028746 1.945645 21.627316 8.377037 17.411650 4.598305 0.000000 0.000000 0.000000 -0.431178 -0.537034 5.966901 3.158590 -0.264190 3.533809 -0.513939 -0.311254 -1.768763 0.000000 0.000000 0.000000 7.586830 -1.432852 13.392023 -5.726134 2.032721 -20.864415 -0.344149 8.788739 23.694129 7.680482 -1.872758 -24.362022 0.000000 0.000000 0.000000 -20.187007 -9.471204 2.014582 -45.459201 -6.955260 -4.169817 -7.170253 -26.362893 2.531646 0.000000 0.000000 0.000000 24.099652 -0.461202 0.377193 49.728204 12.248883 -2.476299 9.793384 29.443082 4.161107 0.000000 0.000000 0.000000 
0.006453 0.931674 0.083484 -0.324468 -4.153836 -0.547909 6.848897 -0.522594 -20.561626 -6.367253 1.131357 12.419496 8.301374 17.269948 5.667942 0.000000 0.000000 0.000000 -1.118240 -0.598146 7.539055 3.255788 -0.260246 4.013058 -0.672388 0.045205 -3.001450 0.000000 0.000000 0.000000 7.196590 -1.425828 14.074893 -5.337418 1.905850 -21.000414 -0.294611 9.603872 23.401476 7.748290 -1.686355 -25.524309 0.000000 0.000000 0.000000 -19.872904 -9.592856 2.028222 -45.073284 -6.887438 -4.115288 -5.989665 -25.531020 2.169197 0.000000 0.000000 0.000000 24.286113 -0.525174 0.385897 49.269365 13.010934 -2.159344 9.867484 30.208211 4.317311 0.000000 0.000000 0.000000 
0.011697 0.926241 0.110754 -0.278841 -4.038201 -1.154779 6.316106 -0.599123 -19.722017 -4.541553 0.596257 5.477626 7.116808 15.247268 6.676901 0.000000 0.000000 0.000000 -1.311212 -0.760551 9.803090 3.209142 -0.263265 3.592401 -0.969511 0.310887 -4.738654 0.000000 0.000000 0.000000 6.982072 -1.417603 14.424816 -5.442458 1.951675 -20.611447 -0.169325 9.139325 23.116112 7.583759 -1.683162 -25.323687 0.000000 0.000000 0.000000 -19.970402 -10.669174 2.706060 -44.270161 -7.621344 -3.787871 -3.993054 -24.518867 1.665179 0.000000 0.000000 0.000000 24.657175 -0.095863 0.513205 49.105185 13.010466 -2.116027 9.733739 30.905791 4.362078 0.000000 0.000000 0.000000 
0.018679 0.920065 0.141061 -0.317256 -4.948353 -1.843531 6.121936 -0.562677 -18.793503 -4.053525 0.510396 3.288610 6.468684 14.198194 8.374864 0.000000 0.000000 0.000000 -1.830027 -0.831099 11.942870 2.782348 -0.188918 4.259019 -1.245721 0.394592 -5.940573 0.000000 0.000000 0.000000 6.493199 -1.350287 14.768004 -5.282836 1.887349 -20.742749 -0.408551 9.744058 23.506417 8.432950 -2.249993 -24.888655 0.000000 0.000000 0.000000 -19.173367 -11.167100 3.015927 -43.694704 -9.167099 -3.283840 -2.124400 -23.228859 1.195803 0.000000 0.000000 0.000000 25.684785 0.076088 0.677760 48.622492 13.295633 -2.124022 10.002401 32.012416 4.642848 0.000000 0.000000 0.000000 
0.027528 0.914820 0.173912 -0.250076 -4.858169 -2.259188 5.280618 -0.703904 -18.719593 -4.393492 0.594383 6.114561 5.986871 13.509144 9.649434 0.000000 0.000000 0.000000 -2.464503 -0.830576 13.235254 2.143530 -0.047576 6.388661 -1.728788 0.354683 -7.998473 0.000000 0.000000 0.000000 5.845568 -1.238090 14.473974 -5.102696 1.862695 -19.589047 -1.043505 9.423897 22.874835 8.886344 -2.678272 -24.120238 0.000000 0.000000 0.000000 -18.568387 -12.423347 3.750293 -42.768965 -11.824739 -2.318103 -0.532218 -22.168040 0.834126 0.000000 0.000000 0.000000 26.994968 0.346832 0.744901 48.157105 13.085230 -2.179234 10.015158 31.955630 4.587213 0.000000 0.000000 0.000000 
0.038218 0.913162 0.208182 -0.270472 -5.741671 -2.546000 4.959392 -0.699491 -17.959968 -5.088816 0.800647 9.003908 6.573753 14.488975 10.750920 0.000000 0.000000 0.000000 -3.078701 -0.759123 14.161763 1.372695 0.185172 9.240712 -1.613499 0.439511 -7.459281 0.000000 0.000000 0.000000 4.771865 -1.046226 13.931753 -4.566803 1.687150 -19.548833 -1.040544 9.546546 23.499379 9.422971 -3.056747 -24.302164 0.000000 0.000000 0.000000 -18.943411 -13.108075 4.250548 -41.854276 -14.779080 -1.397721 0.713388 -21.598992 0.597255 0.000000 0.000000 0.000000 27.594821 0.544766 0.743012 47.971858 12.405077 -2.491218 9.577340 32.178029 4.480550 0.000000 0.000000 0.000000 
0.050584 0.915996 0.242518 -0.060393 -5.862083 -3.043958 4.495347 -0.716286 -16.474021 -6.388989 1.155518 11.090485 7.303617 15.608886 9.451447 0.000000 0.000000 0.000000 -3.918421 -0.627491 14.192770 0.751927 0.518995 13.793199 -0.993786 -0.113859 -4.004446 0.000000 0.000000 0.000000 4.001470 -0.922954 13.588077 -4.713514 1.752760 -18.246148 -1.043780 8.799303 23.032404 8.643536 -2.749170 -23.947332 0.000000 0.000000 0.000000 -18.387844 -14.733169 5.308257 -41.258583 -17.844425 -0.412079 2.518954 -21.136756 0.274201 0.000000 0.000000 0.000000 27.270013 0.691088 0.542239 48.841022 11.600037 -2.675499 9.474335 31.970196 4.384900 0.000000 0.000000 0.000000 
0.063843 0.921776 0.275594 0.226751 -5.492985 -3.629929 2.994142 -0.778444 -13.105329 -6.265002 1.096815 10.521432 6.966912 15.039405 8.314987 0.000000 0.000000 0.000000 -5.216979 -0.325483 10.771518 2.372272 0.599676 24.133440 -1.243229 -2.742593 -0.702998 0.000000 0.000000 0.000000 2.831835 -0.781993 13.489737 -4.046285 1.558191 -18.743241 -1.644259 7.711297 24.182491 8.927482 -3.201560 -23.424742 0.000000 0.000000 0.000000 -18.243252 -15.541327 6.024774 -40.378164 -20.910490 0.359158 4.981216 -22.045336 -0.145787 0.000000 0.000000 0.000000 28.710886 0.728631 0.281151 47.590386 10.432257 -3.206427 10.719343 32.112352 4.708847 0.000000 0.000000 0.000000 
0.076089 0.926943 0.305970 0.607756 -5.877381 -3.795318 1.725329 -0.710186 -9.791606 -6.304185 1.063756 8.926635 7.416232 15.809609 8.157047 0.000000 0.000000 0.000000 -6.958132 0.093702 3.346407 4.578370 0.518862 38.773547 -1.443305 -5.642831 4.505145 0.000000 0.000000 0.000000 1.734548 -0.643668 13.365117 -3.482011 1.383884 -17.628481 -2.348565 6.905236 23.794514 7.656562 -2.644044 -22.828443 0.000000 0.000000 0.000000 -17.355451 -17.151984 7.070218 -38.606911 -23.142633 0.926478 6.020260 -24.732310 -0.370522 0.000000 0.000000 0.000000 27.800518 1.106886 0.140532 49.213965 9.126415 -3.567634 10.685160 31.461844 4.530471 0.000000 0.000000 0.000000 
0.085883 0.930751 0.333536 0.125967 -5.181499 -4.345630 1.374838 -0.518180 -6.729903 -6.406192 1.045763 8.368323 7.001073 15.069383 6.468504 0.000000 0.000000 0.000000 -6.938108 0.307583 -3.574102 6.119677 0.065218 50.653989 -2.309987 -8.810643 8.592573 0.000000 0.000000 0.000000 1.530685 -0.709223 15.273989 -3.517326 1.411722 -18.039479 -2.942808 4.213235 23.271029 7.787121 -3.140841 -22.450882 0.000000 0.000000 0.000000 -16.107637 -17.754744 7.773154 -36.652473 -25.147795 1.294698 8.358363 -28.105863 -0.921681 0.000000 0.000000 0.000000 27.286595 1.417345 -0.495002 50.291133 7.795924 -3.839612 11.425738 31.452461 4.573810 0.000000 0.000000 0.000000 
0.093151 0.935111 0.359832 -0.672855 -4.482894 -4.508150 1.190362 -0.313631 -3.979920 -6.007796 0.925131 7.690968 6.941224 14.957477 5.636363 0.000000 0.000000 0.000000 -6.051864 0.602707 -9.680163 7.556253 -0.970794 54.625327 -3.780799 -11.560280 8.056815 0.000000 0.000000 0.000000 1.910947 -0.828599 16.427014 -3.146592 1.318680 -18.072063 -3.951086 2.445739 23.552537 7.284954 -2.991656 -22.909060 0.000000 0.000000 0.000000 -15.373567 -18.102111 8.142831 -33.999919 -26.600235 1.374537 11.058541 -31.203690 -1.724052 0.000000 0.000000 0.000000 27.653159 1.254574 -1.098532 50.294665 6.623856 -4.194790 11.856906 31.490103 4.602556 0.000000 0.000000 0.000000 
0.098865 0.938778 0.386338 -1.493184 -3.724239 -4.628448 1.408440 -0.138665 -1.879455 -5.734345 0.847314 7.522121 6.446944 13.980747 4.413645 0.000000 0.000000 0.000000 -5.124624 0.920396 -14.043249 8.428666 -1.792618 51.623327 -5.091029 -13.725985 5.575666 0.000000 0.000000 0.000000 2.483198 -0.996110 17.673689 -3.213367 1.358094 -18.610972 -4.452025 0.951526 24.004977 6.649460 -2.736838 -23.290900 0.000000 0.000000 0.000000 -14.273404 -18.559107 8.424971 -32.500731 -28.114927 1.552805 13.371375 -33.201997 -2.468394 0.000000 0.000000 0.000000 27.350271 1.561701 -1.229770 50.910058 5.850888 -4.491021 11.811761 30.912850 4.430836 0.000000 0.000000 0.000000 
0.103528 0.940936 0.413443 -1.982876 -3.106491 -4.660644 1.270341 0.049134 0.485209 -5.404984 0.755969 6.808180 5.854165 12.761132 3.331446 0.000000 0.000000 0.000000 -3.609770 1.354774 -17.739314 7.542117 -1.418075 44.060771 -5.488017 -14.593337 5.894187 0.000000 0.000000 0.000000 2.622926 -1.125685 19.231552 -2.825783 1.254268 -19.132315 -4.803163 0.202698 23.651439 6.445424 -2.537889 -24.152846 0.000000 0.000000 0.000000 -13.741997 -18.491959 8.360631 -32.338193 -29.095211 1.814097 15.158579 -35.241929 -3.150749 0.000000 0.000000 0.000000 27.006027 1.231016 -1.540937 51.170481 5.415782 -4.618649 12.252624 30.845719 4.509930 0.000000 0.000000 0.000000 
